<svg width="1280" height="1713" viewBox="0 0 1280 1713" fill="none" xmlns="http://www.w3.org/2000/svg">
<path d="M162.417 0V608.303C162.417 654.321 174.073 685.479 197.384 701.777C220.695 718.076 259.901 726.225 315 726.225V756.424C293.808 755.465 262.55 754.507 221.225 753.548C180.96 751.631 139.106 750.672 95.6623 750.672C46.9205 750.672 -0.231781 751.631 -45.7947 753.548C-90.298 754.507 -124.735 755.465 -149.106 756.424V726.225C-96.1258 726.225 -54.8013 718.555 -25.1324 703.216C4.53642 686.917 19.3709 655.28 19.3709 608.303V260.29C19.3709 214.272 14.0729 180.238 3.47684 158.188C-7.11919 136.137 -26.192 121.756 -53.7417 115.046C-80.2318 108.335 -117.318 104.979 -165 104.979V73.3415C-88.7086 71.4241 -25.1324 65.1924 25.7285 54.6466C76.5894 44.1008 122.152 25.8852 162.417 0Z" fill="#E5E5E5"/>
<path d="M480.311 346C565.901 346 633.021 376.678 681.672 438.034C731.224 499.39 756 586.089 756 698.13C756 771.046 746.09 835.959 726.269 892.869C706.448 949.778 679.87 999.575 646.535 1042.26C614.101 1084.05 577.613 1119.17 537.071 1147.63C497.429 1176.08 456.887 1198.31 415.443 1214.32C374 1231.22 334.809 1242.78 297.87 1249L292.465 1222.32C329.403 1211.65 367.243 1196.54 405.983 1176.97C445.625 1157.41 481.663 1128.96 514.097 1091.61C547.432 1054.26 574.009 1004.02 593.83 940.886C614.552 877.752 624.913 797.722 624.913 700.798C624.913 613.654 616.804 546.518 600.587 499.39C584.37 452.261 564.099 419.36 539.774 400.687C516.349 382.013 492.024 372.677 466.797 372.677C427.156 372.677 391.568 394.018 360.035 436.7C329.403 478.493 314.087 549.186 314.087 648.778C314.087 744.814 328.502 812.394 357.333 851.52C386.163 890.646 420.399 910.208 460.04 910.208C479.861 910.208 501.483 905.762 524.908 896.87C548.333 887.978 569.955 872.861 589.776 851.52C610.498 830.179 624.913 800.835 633.021 763.487L646.535 755.484C640.229 805.281 624.462 844.406 599.236 872.861C574.009 900.427 545.63 919.99 514.097 931.549C482.564 943.109 453.283 948.889 426.255 948.889C384.811 948.889 345.17 937.774 307.33 915.544C270.392 892.424 240.21 859.523 216.785 816.84C194.262 773.269 183 720.36 183 658.115C183 591.424 196.514 534.959 223.542 488.719C250.571 441.591 286.608 406.022 331.656 382.013C376.703 358.004 426.255 346 480.311 346Z" fill="#E5E5E5"/>
<path d="M1164.13 525C1164.13 581.014 1164.8 624.744 1166.15 656.191C1167.5 687.637 1169.52 715.644 1172.22 740.212C1154.7 737.264 1117.64 735.298 1061.05 734.316C1004.45 733.333 947.861 732.841 891.267 732.841H677.018L652.764 1017.33C682.408 1006.52 715.421 996.697 751.803 987.853C788.185 978.026 833.999 973.112 889.245 973.112C1011.87 973.112 1102.15 994.732 1160.09 1037.97C1218.03 1081.21 1247 1135.26 1247 1200.12C1247 1257.11 1227.46 1308.7 1188.38 1354.89C1149.31 1401.08 1096.76 1440.39 1030.73 1472.82C966.052 1506.23 894.635 1531.78 816.482 1549.47C738.328 1567.16 659.501 1576 580 1576V1549.47C659.501 1548.48 734.96 1535.71 806.376 1511.14C879.139 1486.57 938.428 1449.23 984.242 1399.11C1031.4 1349.98 1054.98 1288.56 1054.98 1214.86C1054.98 1152.95 1032.75 1104.79 988.285 1070.4C945.166 1035.02 882.508 1017.33 800.312 1017.33C765.278 1017.33 735.633 1019.79 711.379 1024.7C688.472 1028.63 662.87 1034.53 634.573 1042.39L614.361 1033.55L652.764 594.28C667.586 596.246 684.429 597.72 703.294 598.703C723.506 599.685 743.044 600.177 761.909 600.177H990.306C1045.55 600.177 1080.59 594.772 1095.41 583.962C1110.23 572.17 1120.34 552.516 1125.73 525H1164.13Z" fill="#E5E5E5"/>
<path d="M1449.96 976C1514.12 976 1570.6 990.93 1619.4 1020.79C1669.1 1049.75 1707.96 1090.92 1735.98 1144.3C1763.99 1197.69 1778 1260.58 1778 1332.96C1778 1405.35 1763.54 1470.5 1734.62 1528.41C1705.7 1585.42 1665.49 1630.66 1613.98 1664.14C1563.37 1696.71 1503.73 1713 1435.04 1713C1372.69 1713 1316.66 1698.52 1266.96 1669.57C1217.25 1639.71 1177.94 1598.08 1149.02 1544.7C1121.01 1490.41 1107 1427.07 1107 1354.68C1107 1283.2 1121.01 1218.95 1149.02 1161.95C1177.94 1104.94 1218.16 1059.7 1269.67 1026.22C1321.18 992.74 1381.27 976 1449.96 976ZM1437.76 1000.43C1379.92 1000.43 1332.02 1031.2 1294.07 1092.73C1257.01 1154.26 1238.49 1240.22 1238.49 1350.61C1238.49 1432.04 1247.98 1497.65 1266.96 1547.41C1285.93 1596.27 1311.24 1632.02 1342.87 1654.64C1375.4 1677.26 1410.19 1688.57 1447.24 1688.57C1505.99 1688.57 1553.88 1657.8 1590.93 1596.27C1627.99 1533.84 1646.51 1447.43 1646.51 1337.04C1646.51 1255.6 1637.02 1190.45 1618.04 1141.59C1599.07 1091.82 1573.76 1056.08 1542.13 1034.36C1510.5 1011.74 1475.71 1000.43 1437.76 1000.43Z" fill="#E5E5E5"/>
</svg>
