<svg width="445" height="690" viewBox="0 0 445 690" fill="none" xmlns="http://www.w3.org/2000/svg">
<path d="M562.457 0C559.451 22.7401 557.197 44.8305 555.694 66.2711C554.942 87.7118 554.566 103.955 554.566 115C554.566 126.695 554.942 138.065 555.694 149.11C556.445 159.506 557.197 168.277 557.948 175.424H532.023C527.514 137.09 521.127 106.879 512.861 84.7881C504.595 62.048 490.318 46.1299 470.029 37.0339C450.491 27.2881 420.809 22.4152 380.983 22.4152H287.428C261.879 22.4152 242.341 24.3644 228.815 28.2627C216.04 31.5113 207.399 38.983 202.89 50.6779C198.382 61.7231 196.127 79.2655 196.127 103.305V586.695C196.127 610.085 198.382 627.627 202.89 639.322C207.399 651.017 216.04 658.814 228.815 662.712C242.341 665.96 261.879 667.585 287.428 667.585H369.711C417.052 667.585 452.746 662.062 476.792 651.017C501.59 639.972 519.249 622.104 529.769 597.415C541.04 572.076 549.306 537.966 554.566 495.085H580.491C578.237 512.627 577.11 536.017 577.11 565.254C577.11 577.599 577.486 595.466 578.237 618.856C579.74 641.596 581.994 665.311 585 690C546.676 688.701 503.468 688.051 455.376 688.051C407.283 687.401 364.451 687.076 326.879 687.076C304.335 687.076 274.277 687.076 236.705 687.076C199.884 687.076 160.434 687.401 118.353 688.051C76.2717 688.051 36.8208 688.701 0 690V670.508C25.5491 669.209 44.711 666.61 57.4855 662.712C71.0116 658.814 80.0289 651.017 84.5376 639.322C89.0462 627.627 91.3006 610.085 91.3006 586.695V103.305C91.3006 79.2655 89.0462 61.7231 84.5376 50.6779C80.0289 38.983 71.0116 31.1864 57.4855 27.2881C44.711 22.7401 25.5491 20.1412 0 19.4915V0C36.8208 0.649709 76.2717 1.29942 118.353 1.94913C160.434 2.59884 199.884 2.92369 236.705 2.92369C274.277 2.92369 304.335 2.92369 326.879 2.92369C361.445 2.92369 400.52 2.92369 444.104 2.92369C488.439 2.27398 527.89 1.29942 562.457 0ZM368.584 333.305C368.584 333.305 368.584 336.554 368.584 343.051C368.584 349.548 368.584 352.797 368.584 352.797H162.312C162.312 352.797 162.312 349.548 162.312 343.051C162.312 336.554 162.312 333.305 162.312 333.305H368.584ZM401.272 204.661C398.266 241.695 396.763 269.958 396.763 289.449C397.514 308.941 397.89 326.808 397.89 343.051C397.89 359.294 398.266 377.161 399.017 396.652C399.769 416.144 401.647 444.407 404.653 481.441H378.728C375.723 460.65 371.965 440.508 367.457 421.017C363.699 400.876 354.682 384.633 340.405 372.288C326.879 359.294 303.584 352.797 270.52 352.797V333.305C303.584 333.305 326.503 325.833 339.277 310.89C352.803 295.946 361.445 278.404 365.202 258.263C368.96 238.121 372.341 220.254 375.347 204.661H401.272Z" fill="#908065"/>
</svg>
