<svg width="585" height="690" viewBox="0 0 585 690" fill="none" xmlns="http://www.w3.org/2000/svg">
<path d="M306.293 0C347.512 0 380.805 6.25001 406.171 18.75C431.537 30.625 455.317 44.6875 477.512 60.9375C485.756 67.1875 492.098 70.3125 496.537 70.3125C508.585 70.3125 516.512 51.25 520.317 13.1251H542.195C540.927 36.25 539.976 64.375 539.341 97.5C538.707 130.625 538.39 174.375 538.39 228.75H516.512C512.073 202.5 506.683 177.188 500.341 152.813C494 128.438 483.537 107.5 468.951 90C450.561 66.875 426.463 49.0625 396.659 36.5625C366.854 23.4375 336.098 16.875 304.39 16.875C272.683 16.875 243.829 24.6875 217.829 40.3125C192.463 55.3125 170.585 77.1875 152.195 105.938C133.805 134.688 119.537 169.375 109.39 210C99.8781 250 95.122 295.313 95.122 345.938C95.122 458.438 113.512 540.938 150.293 593.438C187.073 645.312 244.146 671.25 321.512 671.25C344.341 671.25 364 668.125 380.488 661.875C397.61 655 410.927 648.438 420.439 642.188C432.488 634.062 440.098 626.562 443.268 619.688C446.439 612.188 448.024 602.5 448.024 590.625V500.625C448.024 475 445.488 455.938 440.415 443.438C435.341 430.938 425.829 422.5 411.878 418.125C398.561 413.75 378.585 411.25 351.951 410.625V391.875C363.366 392.5 376.683 393.125 391.902 393.75C407.122 393.75 422.976 394.062 439.463 394.688C456.585 394.688 472.122 394.688 486.073 394.688C507 394.688 525.707 394.375 542.195 393.75C559.317 393.125 573.585 392.5 585 391.875V410.625C564.073 411.875 550.756 416.875 545.049 425.625C539.341 434.375 536.488 456.25 536.488 491.25V676.875H517.463C516.829 666.25 514.293 654.688 509.854 642.188C506.049 629.688 500.024 623.438 491.78 623.438C487.976 623.438 484.171 624.375 480.366 626.25C476.561 628.125 469.902 632.5 460.39 639.375C439.463 655 417.268 667.5 393.805 676.875C370.341 685.625 343.073 690 312 690C213.707 690 136.976 660.625 81.8049 601.875C27.2683 542.5 0 460.625 0 356.25C0 283.125 13.3171 220 39.9512 166.875C66.5854 113.75 102.732 72.8125 148.39 44.0625C194.683 14.6875 247.317 0 306.293 0Z" fill="#908065"/>
</svg>
