<svg width="585" height="690" viewBox="0 0 585 690" fill="none" xmlns="http://www.w3.org/2000/svg">
<path d="M292.961 0C351.307 0 402.283 13.4375 445.89 40.3125C490.11 67.1875 524.197 105.938 548.15 156.563C572.717 206.563 585 267.5 585 339.375C585 409.375 572.409 470.625 547.228 523.125C522.661 575.625 488.268 616.562 444.047 645.938C399.827 675.312 349.158 690 292.039 690C233.693 690 182.409 676.562 138.189 649.688C94.5827 622.812 60.4961 584.062 35.9291 533.437C11.9764 482.812 0 421.875 0 350.625C0 280.625 12.5906 219.375 37.7717 166.875C62.9528 114.375 97.3465 73.4375 140.953 44.0625C185.173 14.6875 235.843 0 292.961 0ZM289.276 16.875C249.354 16.875 214.654 30.9375 185.173 59.0625C155.693 87.1875 132.661 125.938 116.079 175.313C100.11 224.688 92.126 281.875 92.126 346.875C92.126 413.125 101.032 470.937 118.843 520.312C137.268 569.062 161.835 606.875 192.543 633.75C223.866 660 258.26 673.125 295.724 673.125C335.646 673.125 370.346 659.062 399.827 630.938C429.307 602.812 452.031 564.062 468 514.688C484.583 464.688 492.874 407.5 492.874 343.125C492.874 276.25 483.661 218.438 465.236 169.688C447.425 120.938 423.165 83.4375 392.457 57.1875C361.748 30.3125 327.354 16.875 289.276 16.875Z" fill="#D6D0C6"/>
</svg>
