<svg width="585" height="690" viewBox="0 0 585 690" fill="none" xmlns="http://www.w3.org/2000/svg">
<path d="M585 0V19.1136C563.885 19.7507 547.739 22.9363 536.561 28.6703C526.003 34.4044 518.861 43.6426 515.135 56.385C511.409 69.1274 509.546 87.2853 509.546 110.859V398.518C509.546 443.116 506.752 481.981 501.162 515.111C495.573 548.241 485.637 576.911 471.353 601.122C455.828 627.881 433.161 649.543 403.352 666.108C373.543 682.036 339.387 690 300.884 690C271.075 690 242.508 686.177 215.183 678.532C188.479 671.524 164.881 658.144 144.387 638.393C126.377 620.554 112.094 601.759 101.537 582.008C91.6003 562.258 84.7691 538.047 81.043 509.377C77.3169 480.706 75.4538 444.709 75.4538 401.385V101.302C75.4538 77.7285 73.5908 60.5263 69.8647 49.6953C66.1385 38.2271 58.6863 30.5817 47.508 26.759C36.9506 22.2991 21.1147 19.7507 0 19.1136V0C13.0414 0.637111 30.1194 1.27422 51.2341 1.91133C72.3487 2.54844 95.0159 2.867 119.236 2.867C140.971 2.867 162.396 2.54844 183.511 1.91133C205.247 1.27422 223.256 0.637111 237.54 0V19.1136C216.425 19.7507 200.279 22.2991 189.1 26.759C178.543 30.5817 171.401 38.2271 167.675 49.6953C163.949 60.5263 162.086 77.7285 162.086 101.302V417.632C162.086 460.956 165.191 500.776 171.401 537.091C177.611 573.407 190.963 602.396 211.457 624.058C232.572 645.72 265.175 656.551 309.268 656.551C356.465 656.551 392.795 646.039 418.256 625.014C444.339 603.352 462.349 573.726 472.285 536.136C482.842 498.546 488.121 456.177 488.121 409.03V110.859C488.121 87.2853 485.326 69.1274 479.737 56.385C474.769 43.6426 466.075 34.4044 453.654 28.6703C441.234 22.9363 424.467 19.7507 403.352 19.1136V0C414.53 0.637111 429.124 1.27422 447.134 1.91133C465.764 2.54844 482.842 2.867 498.368 2.867C514.514 2.867 530.35 2.54844 545.876 1.91133C562.022 1.27422 575.064 0.637111 585 0Z" fill="#D6D0C6"/>
</svg>
