<svg width="368" height="690" viewBox="0 0 368 690" fill="none" xmlns="http://www.w3.org/2000/svg">
<path d="M368 0V19.3548C356.476 21.9355 344.042 29.3548 330.698 41.6129C317.961 53.8709 306.437 74.5161 296.126 103.548L82.3235 690C81.1104 690 79.8973 690 78.6843 690C77.4712 690 76.2581 690 75.0451 690C73.832 690 72.619 690 71.4059 690C70.1928 690 68.9798 690 67.7667 690L-154.224 81.2903C-163.322 56.7742 -173.633 40.6451 -185.157 32.9032C-196.681 24.5161 -207.295 20 -217 19.3548V0C-204.869 0.645153 -190.009 1.29031 -172.42 1.93546C-154.224 2.58061 -136.635 2.90319 -119.652 2.90319C-95.9969 2.90319 -73.8585 2.58061 -53.2364 1.93546C-32.6143 1.29031 -15.9347 0.645153 -3.19751 0V19.3548C-34.1306 20.6451 -53.8429 26.4516 -62.3344 36.7742C-70.2193 46.4516 -68.3997 67.7419 -56.8756 100.645L112.347 577.742L97.79 594.194L256.095 156.774C268.832 121.935 274.897 94.8387 274.291 75.4838C273.684 55.4838 266.709 41.2903 253.365 32.9032C240.022 24.5161 220.613 20 195.138 19.3548V0C212.728 0.645153 230.621 1.29031 248.817 1.93546C267.012 2.58061 283.995 2.90319 299.765 2.90319C315.535 2.90319 328.575 2.58061 338.886 1.93546C349.198 1.29031 358.902 0.645153 368 0Z" fill="#908065"/>
</svg>
