<svg width="1280" height="901" viewBox="0 0 1280 901" fill="none" xmlns="http://www.w3.org/2000/svg">
<path d="M441.16 240.056C516.907 240.056 576.308 267.564 619.364 322.58C663.217 377.596 685.144 455.336 685.144 555.8C685.144 621.181 676.373 679.387 658.832 730.416C641.291 781.445 617.769 826.096 588.268 864.368C559.564 901.843 527.272 933.337 491.392 958.852C456.309 984.367 420.429 1004.3 383.752 1018.65C347.075 1033.8 312.391 1044.17 279.7 1049.75L274.916 1025.83C307.607 1016.26 341.095 1002.71 375.38 985.164C410.463 967.623 442.356 942.108 471.06 908.62C500.561 875.132 524.083 830.083 541.624 773.472C559.963 716.861 569.132 645.101 569.132 558.192C569.132 480.053 561.956 419.855 547.604 377.596C533.252 335.337 515.312 305.836 493.784 289.092C473.053 272.348 451.525 263.976 429.2 263.976C394.117 263.976 362.623 283.112 334.716 321.384C307.607 358.859 294.052 422.247 294.052 511.548C294.052 597.66 306.809 658.257 332.324 693.34C357.839 728.423 388.137 745.964 423.22 745.964C440.761 745.964 459.897 741.977 480.628 734.004C501.359 726.031 520.495 712.476 538.036 693.34C556.375 674.204 569.132 647.892 576.308 614.404L588.268 607.228C582.687 651.879 568.733 686.961 546.408 712.476C524.083 737.193 498.967 754.735 471.06 765.1C443.153 775.465 417.24 780.648 393.32 780.648C356.643 780.648 321.56 770.681 288.072 750.748C255.381 730.017 228.671 700.516 207.94 662.244C188.007 623.175 178.04 575.733 178.04 519.92C178.04 460.12 190 409.489 213.92 368.028C237.84 325.769 269.733 293.876 309.6 272.348C349.467 250.82 393.32 240.056 441.16 240.056Z" fill="#908065" fill-opacity="0.37"/>
<path d="M1034.25 0C1034.25 45.448 1034.65 80.9293 1035.45 106.444C1036.25 131.959 1037.44 154.683 1039.04 174.616C1028.67 172.224 1006.74 170.629 973.256 169.832C939.768 169.035 906.28 168.636 872.792 168.636H746.016L731.664 399.464C749.205 390.693 768.74 382.72 790.268 375.544C811.796 367.571 838.905 363.584 871.596 363.584C944.153 363.584 997.575 381.125 1031.86 416.208C1066.15 451.291 1083.29 495.144 1083.29 547.768C1083.29 594.013 1071.73 635.873 1048.6 673.348C1025.48 710.823 994.385 742.716 955.316 769.028C917.044 796.137 874.785 816.868 828.54 831.22C782.295 845.572 735.651 852.748 688.608 852.748V831.22C735.651 830.423 780.301 820.057 822.56 800.124C865.616 780.191 900.699 749.892 927.808 709.228C955.715 669.361 969.668 619.528 969.668 559.728C969.668 509.496 956.512 470.427 930.2 442.52C904.685 413.816 867.609 399.464 818.972 399.464C798.241 399.464 780.7 401.457 766.348 405.444C752.793 408.633 737.644 413.417 720.9 419.796L708.94 412.62L731.664 56.212C740.435 57.8066 750.401 59.0026 761.564 59.7999C773.524 60.5973 785.085 60.996 796.248 60.996H931.396C964.087 60.996 984.817 56.6106 993.588 47.84C1002.36 38.272 1008.34 22.3253 1011.53 0H1034.25Z" fill="#908065" fill-opacity="0.37"/>
<path d="M1398.57 353.056C1455.18 353.056 1505.01 366.212 1548.07 392.524C1591.92 418.039 1626.21 454.317 1650.92 501.36C1675.64 548.403 1688 603.817 1688 667.604C1688 731.391 1675.24 788.799 1649.73 839.828C1624.21 890.06 1588.73 929.927 1543.28 959.428C1498.63 988.132 1446.01 1002.48 1385.41 1002.48C1330.4 1002.48 1280.96 989.727 1237.11 964.212C1193.25 937.9 1158.57 901.223 1133.06 854.18C1108.34 806.34 1095.98 750.527 1095.98 686.74C1095.98 623.751 1108.34 567.14 1133.06 516.908C1158.57 466.676 1194.05 426.809 1239.5 397.308C1284.95 367.807 1337.97 353.056 1398.57 353.056ZM1387.8 374.584C1336.77 374.584 1294.52 401.693 1261.03 455.912C1228.34 510.131 1211.99 585.877 1211.99 683.152C1211.99 754.912 1220.36 812.719 1237.11 856.572C1253.85 899.628 1276.18 931.123 1304.08 951.056C1332.79 970.989 1363.49 980.956 1396.18 980.956C1448 980.956 1490.26 953.847 1522.95 899.628C1555.64 844.612 1571.99 768.467 1571.99 671.192C1571.99 599.432 1563.62 542.024 1546.87 498.968C1530.13 455.115 1507.8 423.62 1479.9 404.484C1451.99 384.551 1421.29 374.584 1387.8 374.584Z" fill="#908065" fill-opacity="0.37"/>
<path d="M150.376 151.644V657.552C150.376 695.824 159.147 721.737 176.688 735.292C194.229 748.847 223.731 755.624 265.192 755.624V780.74C249.245 779.943 225.724 779.145 194.628 778.348C164.329 776.753 132.835 775.956 100.144 775.956C63.4667 775.956 27.9853 776.753 -6.3 778.348C-39.788 779.145 -65.7013 779.943 -84.04 780.74V755.624C-44.1733 755.624 -13.0773 749.245 9.248 736.488C31.5733 722.933 42.736 696.621 42.736 657.552V368.12C42.736 329.848 38.7493 301.543 30.776 283.204C22.8027 264.865 8.45067 252.905 -12.28 247.324C-32.2133 241.743 -60.12 238.952 -96 238.952V212.64C-38.592 211.045 9.248 205.863 47.52 197.092C85.792 188.321 120.077 173.172 150.376 151.644Z" fill="#908065" fill-opacity="0.37"/>
</svg>
